<?xml version="1.0" encoding="utf-8"?>
<!-- Generator: Adobe Illustrator 24.0.0, SVG Export Plug-In . SVG Version: 6.00 Build 0)  -->
<svg version="1.1"
	 id="Layer_1" xmlns:cc="http://creativecommons.org/ns#" xmlns:dc="http://purl.org/dc/elements/1.1/" xmlns:inkscape="http://www.inkscape.org/namespaces/inkscape" xmlns:rdf="http://www.w3.org/1999/02/22-rdf-syntax-ns#" xmlns:sodipodi="http://sodipodi.sourceforge.net/DTD/sodipodi-0.dtd" xmlns:svg="http://www.w3.org/2000/svg"
	 xmlns="http://www.w3.org/2000/svg" xmlns:xlink="http://www.w3.org/1999/xlink" x="0px" y="0px" viewBox="0 0 100 125"
	 style="enable-background:new 0 0 100 125;" xml:space="preserve">
<style type="text/css">
	.st0{fill:#797979;}
</style>
<g transform="translate(0,-952.36218)">
	<path class="st0" d="M21.4,1013.9c0.1,1.7,0.8,3.4,2,4.7l41.8,45.6c2.6,3.3,7.4,3.8,10.7,1.2c3.3-2.6,3.8-7.4,1.2-10.7
		c-0.2-0.2-0.4-0.5-0.6-0.7l-37.1-40.5L76.3,973c3-2.9,3.1-7.7,0.2-10.7c-2.9-3-7.7-3.1-10.7-0.2c-0.2,0.2-0.4,0.4-0.6,0.7
		l-41.8,45.6C22,1009.8,21.3,1011.8,21.4,1013.9z"/>
</g>
</svg>
